<?xml version="1.0" encoding="UTF-8"?><svg id="uuid-ff6b5796-5d00-4ae4-9655-64a9148273bf" xmlns="http://www.w3.org/2000/svg" viewBox="0 0 500 500"><defs><style>.uuid-41adb1d7-6174-4666-b529-6cd04d194713{stroke:#fff;stroke-miterlimit:10;stroke-width:6px;}</style></defs><g id="uuid-0f54441e-92e9-4487-a441-eafc773f12f4"><path class="uuid-41adb1d7-6174-4666-b529-6cd04d194713" d="M474.3,294.5c-.6,2.3-1.5,4.2-2.5,5.8-.7,1.1-1.4,2.1-2.1,2.9-5.4,4.9-13.6,11.4-24.7,17.1-23.2,11.8-44.6,11.7-56,12.5-47.1,3-87.1,2.9-101.9,2.9-65.2-.1-97.8-.2-122,.6-5.5,.2-23,0-58.1-.3-21-.2-37.4-.5-57.6-6.9-9.4-3-16.9-6.5-22-9.2,.1-.3,.2-.7,.3-1.1,.1-.5,.3-1,.4-1.5,0-.3,.2-.6,.3-.9,0-.4,.2-.7,.3-1.1v-.2c.4-1.2,.7-2.4,1-3.6,.1-.6,.3-1.2,.4-1.8,1.1-4.3,2.2-9.3,3.2-14.8,.1-.5,.2-1,.3-1.5,5.2-28.6,1-32.4,4.8-55.5,.1-.6,.2-1.3,.3-2,0,0,.7-4.2,3.1-12,3-10,8.7-26,18.9-46.3,.6-1.3,2.4-3.6,4.7-6.8,9.5-13.3,22.7-15.8,30.1-9.2,7.4,6.7,8,38.3,42.2,40,11.5,.6,23.3-4.6,34-11.7,20.7-13.7,37-34.8,37.7-35.8h11.6c9.7,8.5,18.7,16.2,27.1,23.3,4.8,4,9.5,7.8,13.9,11.4,7.4,6,14.3,11.3,20.7,16.1h0c5.5,4.1,10.6,7.8,15.4,11.2,3.2,2.2,6.2,4.3,9.2,6.2,2.5,1.7,5,3.2,7.3,4.6,6.6,4,12.4,7.1,17.5,9.5,2.1,1,4,1.8,5.9,2.5h0c5.6,2.2,10.2,3.3,14.1,3.7,.4,0,2.4,.2,5.5,.5h0c1.7,.1,3.7,.3,6,.6,2.1,.3,4.5,.6,7.1,.9,1.8,.3,3.6,.5,5.3,.8,5.3,.8,10.7,1.7,16,2.6,1.9,.3,3.8,.6,5.8,.9,5.2,.8,10.4,1.6,15.6,2.2,2.5,.3,4.9,.6,7.4,.8,17,1.5,31.1,2,42,12.7,1.6,1.5,15.5,15.5,11.5,30.3Z"/><path class="uuid-41adb1d7-6174-4666-b529-6cd04d194713" d="M221.1,153.9c-1.8,2.9-3.7,5.7-5.5,8.3-12.3,18-23.8,30.2-34.3,38.4-14.5,11.3-27.3,14.9-38,15.2-22.6,.6-33.2-14-60.2-8.1-18.1,4-27.2,13.6-41.2,15.9,3-10,8.7-26,18.9-46.3,.6-1.3,2.4-3.6,4.7-6.8,9.5-13.3,22.7-15.9,30.1-9.2,7.4,6.7,8,38.3,42.3,40,11.5,.6,23.3-4.6,34-11.7,20.7-13.7,37-34.8,37.7-35.8h11.6Z"/><path class="uuid-41adb1d7-6174-4666-b529-6cd04d194713" d="M338,238.6l-4.3,4-24.5,22.6c-26.6,6.7-47.5-.4-58.3-5.7l37.8-34.8,9.5-8.7c17.1,11.8,30,18.9,39.8,22.7Z"/><path class="uuid-41adb1d7-6174-4666-b529-6cd04d194713" d="M413.4,250.8l-8.7,8-22.1,20.4c-26.6,6.7-47.5-.4-58.3-5.7l27.3-25.2,5.9-5.4h0c3.3,.3,7.8,.8,13.1,1.5,14.3,2,28.4,4.8,42.7,6.5Z"/><path class="uuid-41adb1d7-6174-4666-b529-6cd04d194713" d="M282.8,204.8l-47.2,43.5c-26.6,6.7-47.5-.4-58.3-5.7l52.7-48.6,18.2-16.8c12.9,10.8,24.3,19.9,34.6,27.5,0,0,0,0,0,0Z"/><path class="uuid-41adb1d7-6174-4666-b529-6cd04d194713" d="M471.7,300.3c-1.3,4.7-4.6,13.2-12.5,20.1-2.6,2.2-5.1,3.9-7.4,5.1-.8-.8-1.5-1.7-2.3-2.5-6,2-12.1,4.1-18.2,6.1-.3,1.6-.7,3.2-1,4.8-3,.7-6,1.4-9,2.1-.9-1.2-1.9-2.4-2.8-3.6-6.9,1.1-13.8,2.2-20.7,3.3-.6,1.6-1.2,3.2-1.8,4.9-3.8,.6-7.5,1.2-11.3,1.8-1.3-1.7-2.6-3.4-3.8-5.1-7.9,0-15.9,.2-23.8,.3-.9,1.7-1.9,3.4-2.8,5.1-3.5,.2-7,.3-10.5,.5-.6-1.5-1.2-3.1-1.8-4.6h-22.3c-.8,2-1.6,4-2.4,6-4,.1-7.9,.3-11.9,.4-.8-1.8-1.5-3.6-2.3-5.4-6,0-12,.1-18,.2-1.3,1.9-2.6,3.8-3.8,5.8h-16.3c-1.1-1.9-2.3-3.7-3.4-5.6-5.2-.2-10.4-.4-15.5-.6-1.5,2.1-3.1,4.2-4.6,6.3h-15.2l-4.6-6.2c-5.5,.1-11,.3-16.5,.4-1.2,1.9-2.4,3.8-3.6,5.8h-14.6c-.9-2-1.9-4-2.9-6h-19.8c-1.2,2.1-2.4,4.2-3.6,6.3h-14.4c-1.3-1.8-2.6-3.6-3.8-5.4h-16.1c-1.3,1.7-2.6,3.3-3.8,5-18.2-.1-33-1.4-43.7-2.7-14.3-1.7-21.3-3.3-25.2-4.5-.3,0-1-.3-1.7-.5-6.5-2-15.7-5.7-26.8-12.7,0-.6,0-1.4,.4-2.3,.5-1.6,1.4-2.7,2-3.3,9.1-.4,68.4-3,149.4-6.5,18.4-.8,37.8-1.7,58.1-2.5,1.4,.2,2.9,.4,4.4,.6,6.8,.9,14.7,2,23.9,3,1,.1,1.9,.2,2.9,.3l1.6,.2c3.2,.4,6.6,.7,10.2,1.1,0,0,0,0,0,0,.6,0,1.2,.1,1.8,.2,4.1,.4,9.1,1,14.4,1.5,1,0,1.9,.2,2.9,.3,5.9,.6,12.1,1.2,17.7,1.7,.9,0,1.7,.1,2.5,.2,0,0,.2,0,.2,0,.8,0,1.7,.1,2.5,.2,0,0,.1,0,.2,0,1.3,0,2.5,.2,3.7,.3,11.4,.8,24.8,1.1,40.4,.2,.1,0,.3,0,.4,0,9.6-.5,19.9-1.5,31.1-3,4.5-.6,9.1-1.3,13.8-2.1,1.9-.3,3.9-.7,5.9-1,17.2-3.2,35.9-7.8,56.3-14.1Z"/><path class="uuid-41adb1d7-6174-4666-b529-6cd04d194713" d="M471.7,300.3c-.7,1.1-1.4,2.1-2.1,2.9-5.4,4.9-13.6,11.4-24.7,17.1-23.2,11.8-44.6,11.7-56,12.5-47.1,3-87.1,2.9-101.9,2.9-65.2-.1-97.8-.2-122,.6-5.5,.2-23,0-58.1-.3-21-.2-37.4-.5-57.6-6.9-9.4-3-16.9-6.5-22-9.2,.1-.3,.2-.7,.3-1.1,.1-.5,.3-1,.4-1.5,.2-.6,.4-1.3,.6-2v-.2c.4-1.2,.7-2.4,1-3.6,.1-.6,.3-1.2,.4-1.8,1.1-4.3,2.2-9.3,3.2-14.8,11.7,.5,26.6,1.2,43.8,2,50.1,2.4,75.2,3.6,90.1,5,30,2.8,42.1,5.5,67.5,9,1.4,.2,2.9,.4,4.4,.6,6.8,.9,14.7,2,23.9,3,1,.1,1.9,.2,2.9,.3l1.6,.2c3.2,.4,6.6,.8,10.2,1.1,0,0,0,0,0,0,.6,0,1.2,.1,1.8,.2,4.1,.4,9.1,1,14.4,1.5,1,.1,1.9,.2,2.9,.3,5.9,.6,12.1,1.2,17.7,1.7,.9,0,1.7,.1,2.5,.2,0,0,.2,0,.2,0,.8,0,1.7,.1,2.5,.2,0,0,.1,0,.2,0,1.3,0,2.5,.2,3.7,.3,11.4,.8,24.9,1.1,40.4,.2,.1,0,.3,0,.4,0,9.6-.5,19.9-1.5,31.1-3,4.5-.6,9.1-1.3,13.8-2.1,1.9-.3,3.9-.7,5.9-1,17.2-3.2,35.9-7.8,56.3-14.1Z"/><path class="uuid-41adb1d7-6174-4666-b529-6cd04d194713" d="M279.7,316.2c-34.3-1-68.6-2.1-103-3-3,0-6-.2-8.9-.3-45.9-1.3-91.8-2.5-137.7-3.5,1.1-4.3,2.2-9.3,3.2-14.8,11.7,.5,26.6,1.2,43.8,2,50.1,2.4,75.2,3.6,90.1,5,30,2.8,42.1,5.5,67.5,9,1.4,.2,2.9,.4,4.4,.6,6.8,.9,14.7,2,23.9,3,1,.1,1.9,.2,2.9,.3l1.6,.2c3.2,.4,6.6,.8,10.2,1.1,0,0,0,0,0,0,.6,0,1.2,.1,1.8,.2Z"/></g></svg>