<?xml version="1.0" encoding="UTF-8"?><svg id="uuid-7704239c-af09-4f7a-83d1-25839d513a7e" xmlns="http://www.w3.org/2000/svg" viewBox="0 0 500 500"><defs><style>.uuid-1e5e9fe8-bb2b-4d7e-ac99-cdd9e31eecbb{stroke:#fff;stroke-miterlimit:10;stroke-width:6px;}</style></defs><g id="uuid-5d097c40-2fb9-43c7-a9fd-a441d0b8fb62"><path class="uuid-1e5e9fe8-bb2b-4d7e-ac99-cdd9e31eecbb" d="M209.7,30.3s36.2-12,81.4,0c0,0-.1,52.1-42.5,53.7-35.8,1.3-38.8-53.7-38.8-53.7Z"/><path class="uuid-1e5e9fe8-bb2b-4d7e-ac99-cdd9e31eecbb" d="M452.4,293.7c-7.7-67.3-28.9-177-63.5-207.7-34.6-30.8-90.4-30.8-90.4-30.8,0-21.3-7.7-25-7.7-25-1.9,21.2-40.4,40.4-40.4,40.4,0,0-38.5-19.2-40.4-40.4,0,0-8.7,3.6-7.7,25,0,0-55.8,0-90.4,30.8-34.6,30.8-55.8,140.4-63.5,207.7-7.7,67.3-9.6,136.6,3.8,153.9,13.5,17.3,44.2,13.5,55.8,1.9,13.5-13.5-1.9-90.4,5.8-151.9,7.7-61.5,21.2-96.2,21.2-96.2,0,0,7.7,92.3,3.8,138.5-3.8,46.2-21.2,51.9,5.8,73.1,26.9,21.2,105.8,17.3,105.8,17.3v-.2c14.7,.5,81.9,1.7,105.8-17.1,26.9-21.2,9.6-26.9,5.8-73.1-3.8-46.2,3.8-138.5,3.8-138.5,0,0,13.5,34.6,21.2,96.2,7.7,61.5-11.5,138.5,1.9,151.9,13.5,13.5,44.2,13.5,57.7-3.8,13.5-17.3,13.5-84.6,5.8-151.9Z"/><path class="uuid-1e5e9fe8-bb2b-4d7e-ac99-cdd9e31eecbb" d="M60.6,454.7c1.1,7.5,4.1,18.6,12.9,19.8,13.5,1.9,26.9-1.9,30.8-7.7,2.4-3.6,2.6-10.9,2.3-15.9-10.3,8.6-31.6,12-46,3.8Z"/><path class="uuid-1e5e9fe8-bb2b-4d7e-ac99-cdd9e31eecbb" d="M388.9,449.5c-.2,5,0,11.9,2.4,15.3,3.8,5.8,17.3,9.6,30.8,7.7,7.9-1.1,11.2-10.2,12.5-17.5-15,7.1-35.3,4.7-45.6-5.5Z"/><path class="uuid-1e5e9fe8-bb2b-4d7e-ac99-cdd9e31eecbb" d="M356.2,413c-23.9,18.8-91,17.6-105.8,17.1v.2s-78.9,3.8-105.8-17.3c-2.7-2.1-5-4.1-6.9-6,.8,9,2.2,18.7,4.9,23.3,5.8,9.6,53.9,21.2,107.7,21.2s92.3-9.6,101.9-19.2c4.5-4.5,6.9-14,8.1-22.8-1.3,1.2-2.7,2.3-4.3,3.6Z"/><path class="uuid-1e5e9fe8-bb2b-4d7e-ac99-cdd9e31eecbb" d="M364.7,200.8c-5-41.3-1.3-81.5,11.3-123l2.9,.9c-12.4,41.1-16.1,80.9-11.2,121.7l-3,.4Z"/><path class="uuid-1e5e9fe8-bb2b-4d7e-ac99-cdd9e31eecbb" d="M137.3,202.3l-3-.4c5.2-43.5,1.9-86.7-9.8-125.1l2.9-.9c11.7,38.8,15.2,82.5,9.9,126.4Z"/><path class="uuid-1e5e9fe8-bb2b-4d7e-ac99-cdd9e31eecbb" d="M290.8,30.2c-1.9,21.2-41.9,39.4-41.9,39.4,0,0-37-18.2-38.9-39.4,0,0-9.2,3.3-7.7,25,0,0,13,36.3,46.1,37.1,34.2,.8,50.1-37.1,50.1-37.1,.5-22.4-7.7-25-7.7-25Z"/><path class="uuid-1e5e9fe8-bb2b-4d7e-ac99-cdd9e31eecbb" d="M248.2,431.8c-.8,0-1.5-.7-1.5-1.5V68.7c0-.8,.7-1.5,1.5-1.5s1.5,.7,1.5,1.5V430.3c0,.8-.7,1.5-1.5,1.5Z"/></g></svg>