<?xml version="1.0" encoding="UTF-8"?><svg id="uuid-10edfba9-9599-4927-851b-0f0fbc45edbd" xmlns="http://www.w3.org/2000/svg" viewBox="0 0 500 500"><defs><style>.uuid-ee141857-ebdd-412d-bac2-7d91c9ff4d1d{opacity:.5;}.uuid-a6db2d28-cad8-41f7-93ae-90b2a2994624{stroke:#fff;stroke-miterlimit:10;stroke-width:6px;}</style></defs><g id="uuid-2d51bcd3-6bee-46e7-970b-ff748931c00e"><path class="uuid-a6db2d28-cad8-41f7-93ae-90b2a2994624" d="M391.6,444.9l-9.2-243.2,22.4,51.4,89.1-52.3s-49.8-112.2-96-143.6c-46.2-31.4-110-32.2-110-32.2,0,0,.8,35.2-41.9,33.8-40.9-1.3-41.7-33.8-41.7-33.8,0,0-57.2,.8-103.4,32.2C54.7,88.6,5.5,200.8,5.5,200.8l89.1,52.3,22.4-51.4-4.8,243.2s34.1,30.1,140.2,30.1,139.2-30.1,139.2-30.1Z"/><path class="uuid-a6db2d28-cad8-41f7-93ae-90b2a2994624" d="M299.4,25.7c-7.2-.6-11.5-.7-11.5-.7,0,0,.8,35.2-41.9,33.8-40.9-1.3-41.7-33.8-41.7-33.8,0,0-4.8,0-12.8,.9,1.9,15.6,11.1,44.5,53.9,44.5s52.6-29.9,54-44.7Z"/><path class="uuid-a6db2d28-cad8-41f7-93ae-90b2a2994624" d="M5.5,200.8l89.1,52.3,5.4-12.4L11,189c-3.5,7.4-5.5,11.9-5.5,11.9Z"/><path class="uuid-a6db2d28-cad8-41f7-93ae-90b2a2994624" d="M494.5,200.8l-89.5,53.2-5.2-12.2,88.3-52.9c3.5,7.4,6.4,12,6.4,12Z"/><path class="uuid-a6db2d28-cad8-41f7-93ae-90b2a2994624" d="M117.3,202.8s0,0,0,0c-.8,0-1.4-.5-1.3-1.1l6.6-118.1c0-.6,.7-1.1,1.5-1.1,.8,0,1.4,.5,1.3,1.1l-6.6,118.1c0,.6-.7,1.1-1.4,1.1Z"/><path class="uuid-a6db2d28-cad8-41f7-93ae-90b2a2994624" d="M382.2,202.8c-.7,0-1.2-.4-1.3-1l-12.9-118.1c0-.6,.5-1.1,1.2-1.2,.7,0,1.3,.4,1.4,1l12.9,118.1c0,.6-.5,1.1-1.2,1.2,0,0,0,0-.1,0Z"/><g class="uuid-ee141857-ebdd-412d-bac2-7d91c9ff4d1d"><path class="uuid-a6db2d28-cad8-41f7-93ae-90b2a2994624" d="M245.4,71.5c-51.8,0-54.8-44-54.9-44.4,0-.6,.4-1.1,1-1.2,.6,0,1.1,.4,1.2,1,0,1.7,3,42.3,52.7,42.3s52.6-40.6,52.7-42.3c0-.6,.5-1.1,1.2-1,.6,0,1.1,.6,1,1.2,0,.4-3.2,44.4-54.9,44.4Z"/></g></g></svg>