<?xml version="1.0" encoding="UTF-8"?><svg id="Capa_6" xmlns="http://www.w3.org/2000/svg" viewBox="0 0 250 250"><defs><style>.cls-1{fill:#a6a6a6;stroke:#fff;stroke-miterlimit:10;stroke-width:4px;}.cls-2{fill:#f3630f;}</style></defs><circle class="cls-2" cx="125" cy="125" r="110"/><circle class="cls-1" cx="125" cy="125" r="100"/><g><path d="M122.6,111.1c0-.2,.4-.8,.4-1.1,.4-1.7,2.1-5,2.1-5-8.8,.8-10.9,3.3-10.9,3.3,2.4-3.3,8.6-6.3,8.6-6.3-6.5,.6-19.4,8.4-19.4,8.4,3.5-4.3,10.3-7.9,10.3-7.9-4.7,.6-11.4,3.9-11.4,3.9,0,0,5.7-4.9,12.7-5.5,6-.5,11-1.6,12.2-1.9-.9-1.2-2.9-4.6-2.7-9.3,.2-7.3,.7-9.9,2.3-16.6,0,0-.6,5.3,.1,8.7,.7,3.5,1,8,1,8,0,0,1.1-.7,1.3-4,.1-2,.9-6.2,.9-6.2,0,0,.3,4.4,1,7.3,.3,1.3,.5,3.6,.4,5.6,.3-.4,.5-.8,.8-1.2,1.6-2.3,5.2-7.4,6.6-9.5,2.8-4.1,5.6-12.4,5.7-17,0,0,0,0,0,0,0,0,0-.1,0-.2,0,0,0,0,0,.1-.4,.8-1.5,3.1-3.9,4.5-.7,.4-1.5,.8-2.4,1-.5,.1-1,.2-1.4,.2,.9,1.6,1.1,4.2,1.1,4.2-.1-1.3-1.7-3.4-2.6-4.7-1.3-.7-2.3-2.3-2.2-4.6,0-1.5,.3-3,.6-4.5,.1-.7,.3-1.3,.4-2,.2-1.1,.4-2,.3-2.7-1.1-.3-2-.5-3.3-1h0s-.3,5.9-5,9.7c-4,3.3-10.3,5.7-15.3,5.9h0c3.1,.2,8.5,.6,12.2,1.1,0,0-6.7,1.8-12.2,4.6,0,0,5.7-.7,9,0,0,0-8.1,2-11.3,7.2l-2.7,8.9s1.9,.5,8.6-1.4c0,0-5.9,5.7-17.3,10h0c-.9,1-2.9,3.3-3.6,8.3-.7,4.9-.2,8-.2,8.8,0,0,2.9,4.7,7.9,5.8,0,0-2.9,3.9-6.8,5.9,0,0,4.2-.3,6.8-2,0,0-1.7,3.9-8.8,8.7,0,0,4.4-.2,9.3-2.7,0,0-8.1,7.4-16.8,9.9l10-.3c.7,0,5.1-.6,5.1-.6,1.1,0,2.1,0,2.7,0,.4,0,.6,0,.7-.1,.4-.3,.5-.9,.6-1.8,.2-1.6,.6-4.2,2.8-8.8,1.5-2.6,3.7-5.2,5.6-8.4-2.6-.1-6.9-.9-11.1-4,0,0,6.4,3.7,11.6,3.1h0c2,0,2.9-.2,5-.8l5.2-10.8Z"/><path d="M118.6,121.9c7.9-2,19.1-6.3,19.1-6.3,1.9-1,7.7-4.4,7.7-4.4,0,0-4.8,4.4-7.3,6.3-1,.7-2,1.9-2.8,2.9-.2,.8-.4,1.6-.5,2.4-.3,3.6,0,9.5-.2,12.7-.2,3.2-2.7,7.8-2.7,7.8,0,0-3.8,.6-5.8,1.7-2.6,1.4-2.6,3.5-2.5,4.2,0,.4,.8,1,2.5,3.8,.3,.6,1.9,2.1,2.3,2.7,1.1,1.7,1.6,4.3,2.9,5.8,3.8,4.4,8.4,8.3,9.6,8,.3,0,.8-.7,1.2-1.4-2.6-2.2-6.1-5.2-7-6.7-2.6-4.1-3.7-9.9-3.7-9.9,0,0,3.5,7.9,6.6,10.8,1.8,1.7,3.6,3.2,4.8,4.2h0c0-.7-.2-2-.7-3.4-.6-1.2-1.1-2.2-1.4-2.5-.8-.9-2.4-1.5-2.4-1.5,.7-.7,1.4-1.6,1.4-1.6-.9-1-2.3-1.5-2.3-1.5,1.5-.4,2.2,0,2.2,0v-.8c-2-.9-4.6-.8-4.6-.8,.9-.8,2.3-1.2,4.5-1.1,0-.8-.1-1.6-.3-2l-.6-1.6s3.4-8.5,5.4-14.1c2-5.6,4.5-9.7,5.4-14.5,.9-4.8,2.1-8.7,2.7-10.6,.6-1.9,.6-3.5-1.1-5.6h0c-1.2-1-2.6-1.6-3.8-1.2-.6,.2-1.3,.4-2,.7,1.3,.3,3.8,1,4.5,2,.9,1.3-.1,7.7-1.2,11.2-1.1,3.4-2,5-4,9.6-1.3,2.9-5.6,13.8-5.6,13.8,0,0,1.8-8,2.8-14,.4-2.3,.1-3.9,.4-5.2,1-4.5,3.5-5.3,3.5-5.3-1.6,3.3-1,4.9-1,4.9,2.8-3.8,4-9.9,4-9.9,0,0,1.4-4.4-.5-4.8-1.9-.4-9.1,0-9.1,0l3.6-2.9s-.5-1.1-4.9,.8-4,1.2-4,1.2c0,0,0-.3,0-.8,0-1.2,.2-3.5,1.3-3.9,.1,0,.2,0,.4,0,.9,0,2.3,.1,3.8,.2,1.3,0,2.6,.2,3.5,.3,.4,0,.6,0,.8,0h0c-.3,0-.5,0-.8,0-1.3-.6-3.8-1.5-6-1.7-1.1-.1-2.1,0-2.8,.2-.5,.2-1.1,.6-1.7,1.2-1.4,1.3-3,3.3-4.1,4.8,0,.1-.2,.2-.2,.3-.3,.4-.6,.8-.8,1-.1,.2-.2,.3-.3,.4h0c-1.6,2.3-7.7,14.4-7.7,14.4Z"/><path d="M84.5,144.5c-.9,1.3-1.9,1.4-3.2,2.9-3.7,4.1-5.7,6.1-8.5,12.9-1.3,3.1-2.5,5.7-3.5,7.6h0c-.8,1.5-1.4,2.6-1.9,3.3-1.2,2.4-1.8,4.4-1.9,6.2,0,0-1.4-2.4-1-5.8-.5,0-1.1,.1-1.7,.3-2,.7-4.5,1.7-5.5,2.5-.7,.6,0,2.5,.8,5.1,.2,.9,1.1,1.8,1.3,2.7,.2,1-.3,2.6,0,3.9,.6,3.2,1.8,6.2,2.3,7.6,.6,1.9,2.8,3.5,5,4.7,2,1,3.4,.5,3.7,.4-2.6-1.6-6.7-4.4-7.5-6.5-2.2-5.3-2-12.1-2-12.1,0,0,2.2,9.9,5.2,13.9,2,2.6,3.9,3.1,5.1,3.1,0-.6,0-1.3-.2-2.1,0-.3-.2-.5-.2-.7-.3-.6-.7-1.2-.9-1.6-.7-1.2-2.5-2.3-2.5-2.3,1-.6,2.1-1.5,2.1-1.5-.9-1.3-2.4-2.3-2.4-2.3,1.9,0,2.7,.4,2.7,.4l.2-.9c-2.2-1.5-5.3-2-5.3-2,1.4-.8,3.5-.8,6.6,0,.5-1.3,.9-2.5,1-3.2,.2-1.7,2.2-5.7,3.6-9.1,1.5-3.4,12.2-15.9,14.4-18.8,2.2-3,6.1-5.3,8.1-8.2,.2-.3,.4-.5,.6-.8-1.4-.3-4.3,0-4.3,0l-10,.3Z"/><path d="M78.2,78.8c.9,.5,.5,.3,1.5,1.5,1,1.2,1-.3,2.1,.6,1.1,.9,1.5,.2,1.5,.2,0,0,.7,1.1,1.4,.6,.6-.4,.9-1.4,1.9-2.9,1-1.5,.5-1.7,0-3-.4-1.3-.8-2.8-.8-2.8,0,0,0-.6,3.6-2.9,3.7-2.4,4.7-3.4,8.5-4.9,3.8-1.5,7.4-4.3,7.4-4.3,0,0,5.3,3.2,8,4.5,0,0,.2,0,.2,.1-.8,1.2-1.8,3-2.8,5.1,2-.2,5.1-.8,8.6-2.5,8.7-4,10.3-10.6,10.5-13.3-.1,0-.3,0-.4-.1-.2,0-.3,0-.5-.1-.1,0-.3,0-.4,0,0,0-.1,0-.2,0-.8-.2-1.7-.3-2.7-.4-1.4-.1-2.7-.2-3.7-.3-2-.1-3.5-.2-3.5-.2,3.2,1.1,5.3,3.1,5.3,3.1-6.7-2.6-14.9-1.8-14.9-1.8,7.2,1.8,10.8,4.5,10.8,4.5-12.9-3.6-21.9-2.1-21.9-2.1,2.3-.1,3.9,2.3,3.9,2.3,0,0-8.3,3.2-11.8,5.4-3.6,2.2-5.2,6.2-5.2,6.2-.3-.8-1.3-2.9-1.8-3.9-.1,.1-.2,.3-.3,.4,0,0-.2,.2-.2,.3-.3,1.6-.6,4.2-.5,5.4,.4,2.9,2.4,5.7,2.4,5.7,0,0-4.6-4.7-5.3-7.4,0,0-.2,3,.5,5.3-.2-.2-.4-.3-.6-.5-.8-.7-1.5-1.8-1.9-2.9-.7,1.4-.7,2.3-.1,3.1,.6,1,.6,1.5,1.5,2Z"/><path d="M129.8,54.9h0Z"/><path d="M187,61.8c-.2-.9-1.4-.9-1.4-.9,0,0,0-1.1-.7-1.3-.8-.3-1.4,.8-1.4,.8,0,0-.4-.9-1.1-1.1-.8-.2-1.2,.3-1.2,.3,0,0-.5-1.1-1.3-1.1-.8,0-1.3,.6-1.3,.6,0,0-.9,0-1.6-.2-.7-.2-.9,.6-1.8,1.9,.3,1.8,2.3,4.7,2.3,4.7,0,0-2.4-.4-3.8-2.2,0,.3,0,1.6,.4,2.4,.1,.2,.3,.4,.4,.6h0c.2,.2,.3,.4,.5,.6,.4,.4,1,.9,2.1,1.6,1.4,.9,2.7,1.1,2.7,1.1,0,0-1.7,.5-4.5,.2,0,0,0,1.3,.8,1.9,0,0-1.1,.7-3.8-.5-1.5,1.1-4.1,2.8-6.2,3.7-1.6,.7-2.9,1.6-3.7,2.2,.7,1.7,.4,3.1,.4,3.1,.8,.6,1.1,2.8,1.1,2.8-1.8-1-5-1.5-5-1.5,1.2-.9,2.8-1,2.8-1-.7-2.3-2.8-4.2-2.8-4.2-1.6-1-3.8-2.2-5.6-3.4,.3,2.1-.3,4-.3,4-.6-2.9-1.7-5.1-2.8-6.7-.9-1-1.8-2.2-2.7-3.1-.6-.6-1.3-1.1-1.8-1.5-1.4,6.1-3.3,10.9-5,14.4,2.5,1.2,5.5,2.4,7.8,3.5,4.9,2.3,11.4,4.1,12.9,4.2,1.4,.1,2.8-.3,4.1-1.6,1.3-1.3,8.9-8.3,11.8-11.6,2.9-3.3,4.9-3.6,6.1-6,1.2-2.4,2.2-4.5,2.2-4.5,0,0,1.6-1.4,1.4-2.3Z"/><path d="M135.2,56.6s0,0,0,0c0,0,0,0,0,0Z"/><path d="M144.5,63.8s0,0,0-.1c0,0,0,0,0,.1Z"/><polygon points="144.5 63.8 144.5 63.8 144.5 63.8 144.5 63.8"/><path d="M134.1,65.6c.2,1.3,.4,2.2,.8,2.8,0-.2,0-.5,0-.7,0-.3,.2-.9,.3-1.6,.3-1.6,.7-3.7,.7-3.7,.3,1.5,.8,5.5,.8,5.5,0,0,1.8-2.7,3.2-4.8h0c1.3-2.3,3.8-4,3.8-4,0,0-3,4.7-1.7,4.2,.9-.3,1.9-.6,3.2-.9,.2-.3,.4-.6,.6-.8,.6-.5,2.9-.5,3.7-.4,.8,.1,2.7,.5,2.4-.1,0-.2-.7-1.5-2.7-1.7-.2,0-.5,0-.8-.1-1.7-.4-2.8-1.3-2.9-2.6,0-.5-.2-2.1,.7-2.3,1.3-.3,1.5-.4,1.2-2.1-.3-1.7-.8-3.9-.4-4.6,.4-.6,2.5-1.7,2.8-2.3,.6-1.2-.9-2.7-2-3.3-1.1-.5,2.1-.6,4.6,0,2.5,.6,5,3.7,5,3.7,0-.3,.7-.4,.9-1.7,0-.8-.4-1.5-.4-1.5h.9s-2.3-3.4-6.1-4.8c-2.8-1-5.4-1.2-7.4,.2-.5-.2-1.2-.3-2-.2-2.6,.1-5.6,2-6.4,4.7-.8,2.7-.1,5.2,.4,6.1,.3,.4,.6,1,.9,1.4,0,.3,.2,.7,.3,1,.3,.9,.6,2.2,.8,3.3,1-2-.7-4.3-.5-5.6,.2-1.6,.7-3.3,.7-3.3,0,0,0,2.1,.2,3,.1,.7,.8,2.2,1.2,3.3,.3,.8,.3,1.4,.2,2,0,.5-.2,.9-.4,1.3-.1,.3-.7,.8-1.2,1.3-.7,.7-3.2,1.9-4.7,2.3-.2,.6-.4,1.4-.5,2.2-.3,1.4-.5,3.1-.2,5Zm8.3-20.6c.5-.3,1.3,.8,1.3,.8-.3,0-.7-.2-1.1,0-.3,0-.6,.5-.7,.7-.3,.5,0,2.3,0,2.3-.3-.6-.5-.9-.6-1.9,0-1,.7-1.6,1.1-1.9Z"/><path d="M150.2,48c-.7,0-.9,.3-.9,.3,0,0,.5,.6,.8,.9,.3,.3,1,.8,1.2,.9,.6,.4,1.3,.3,1.6,.2,.3-.1,.6-.9,.7-.9,0,0,.7-.3,1-.4,0,0-.8-1.2-1.2-1.5-.4-.3-2.4-.6-2.9-.7-.4,0-1.3,.3-1.3,.3,0,0,.9,.2,1.1,.3,.2,.1,.5,.5,.5,.5,0,0-.3,0-.7,0Z"/><path d="M152.3,53.8c-.3-.1-.9,0-.8,.3,0,.1,.4,.7,1.2,.8,.7,.1,1.7-.2,1.9-.3,.3-.2-2-.7-2.3-.8Z"/><path d="M153.7,55.7c-.3-.4-.9-.2-1.2-.2-.8-.2-1.2-.6-2-.6-.8,0-.9,.2-1,.3,0,0,.3,.7,.9,1.2,.8,.7,2,1.1,2,1.1,0,0,1.5-1.4,1.3-1.7Z"/><path d="M150,57.4c-.2,0,.3,.7,.5,1,.2,.3,.8,1.3,1.3,1.4,0-.5,.1-.9,.1-1.1,0-.3,.4-.4,.7-.7,0,0,0,0,0,0-.3-.2-1.2-.3-1.4-.4-.6-.1-1-.3-1.2-.2Z"/><path d="M155.7,49.4c-.1,.3-1.2,1.1-.6,1.9,0,0,0-.2,0-.2,0-.3,.4-.2,.7-.4,.4,0,.7,0,.7,0-.2-.1-.5-.3-.4-.5,.2-.3,.4-.6,.6-.9-.2-.2-1,0-1,.2Z"/></g></svg>