<?xml version="1.0" encoding="UTF-8"?><svg id="uuid-cf0487a1-ee7d-47d1-aec3-1a34a82f6b0b" xmlns="http://www.w3.org/2000/svg" viewBox="0 0 500 500"><g><path d="M347.4,109.1c-3.1,0-5.7,2.5-5.7,5.7s2.5,5.7,5.7,5.7,5.7-2.5,5.7-5.7-2.5-5.7-5.7-5.7Z"/><path d="M158.2,114.7c0-3.1-2.5-5.7-5.7-5.7s-5.7,2.5-5.7,5.7,2.5,5.7,5.7,5.7,5.7-2.5,5.7-5.7Z"/><path d="M146.9,114.7c0-3.1,2.5-5.7,5.7-5.7s5.7,2.5,5.7,5.7-2.5,5.7-5.7,5.7-5.7-2.5-5.7-5.7Z"/><path d="M347.4,120.4c-3.1,0-5.7-2.5-5.7-5.7s2.5-5.7,5.7-5.7,5.7,2.5,5.7,5.7-2.5,5.7-5.7,5.7Z"/></g><path d="M437.4,60.2c-.3-4.2-3.8-7.4-8-7.4H70.6c-4.2,0-7.7,3.2-8,7.4l-27.5,378.5c-.2,2.2,.6,4.4,2.1,6,1.5,1.6,3.6,2.6,5.9,2.6H457c2.2,0,4.4-.9,5.9-2.6,1.5-1.6,2.3-3.8,2.1-6l-27.6-378.5ZM66.5,422.1h-8v-8h8v8Zm16.1,0h-8v-8h8v8Zm16.1,0h-8v-8h8v8Zm16.1,0h-8v-8h8v8Zm16.1,0h-8v-8h8v8Zm16.1,0h-8v-8h8v8Zm16.1,0h-8v-8h8v8Zm16.1,0h-8v-8h8v8Zm16.1,0h-8v-8h8v8Zm16.1,0h-8v-8h8v8Zm16.1,0h-8v-8h8v8Zm16.1,0h-8v-8h8v8Zm16.1,0h-8v-8h8v8Zm16.1,0h-8v-8h8v8Zm16.1,0h-8v-8h8v8Zm16.1,0h-8v-8h8v8Zm16.1,0h-8v-8h8v8Zm16.1,0h-8v-8h8v8Zm16.1,0h-8v-8h8v8Zm-.9-287.2v62.6c-.3,67.1-47.6,121.7-105.4,121.7s-105.1-54.6-105.4-121.6v-62.6c-8-3.2-13.7-11-13.7-20.1s9.7-21.7,21.7-21.7,21.7,9.7,21.7,21.7-5.7,16.9-13.7,20.1v62.6c.3,58.2,40.4,105.6,89.4,105.6s89.1-47.4,89.4-105.7v-62.6c-8-3.2-13.7-11-13.7-20.1s9.7-21.7,21.7-21.7,21.7,9.7,21.7,21.7-5.7,16.9-13.7,20.1Zm17,287.2h-8v-8h8v8Zm16.1,0h-8v-8h8v8Zm16.1,0h-8v-8h8v8Zm16.1,0h-8v-8h8v8Zm16.1,0h-8v-8h8v8Z"/></svg>