<?xml version="1.0" encoding="UTF-8"?><svg id="uuid-8c38d643-9b6d-4142-a1ec-70eec5b2f8a4" xmlns="http://www.w3.org/2000/svg" viewBox="0 0 500 500"><defs><style>.uuid-ae3086ef-442c-4f29-81e7-48ac39b596f5{stroke:#fff;stroke-miterlimit:10;stroke-width:6px;}</style></defs><g id="uuid-3e914cb7-b32f-4c7a-98c5-d3741addd235"><path class="uuid-ae3086ef-442c-4f29-81e7-48ac39b596f5" d="M276.9,461.3c-.2,4.5,.1,9.6,2.6,11.6,4.9,4.1,44.9,1.6,46.6-2.5,.9-2.2,.8-7.6,.6-12.1-8.4,5.6-38,10.3-49.8,3Z"/><path class="uuid-ae3086ef-442c-4f29-81e7-48ac39b596f5" d="M172.5,458.3c-.2,4.6-.3,10,.6,12.2,1.6,4.1,41.7,6.5,46.6,2.5,2.5-2.1,2.9-7,2.6-11.5-11.6,7.4-41.4,2.4-49.8-3.2Z"/><path class="uuid-ae3086ef-442c-4f29-81e7-48ac39b596f5" d="M306.5,25.1c-4-.7-21.4,4.7-56.9,4.9-35.5-.2-52.9-5.6-56.9-4.9-4.9,.8-7.7,10.6-6.3,12.3,0,0,28.8,6.5,62.8,6.5h0c.1,0,.2,0,.3,0,.1,0,.2,0,.3,0h0c34,0,62.8-6.5,62.8-6.5,1.4-1.6-1.4-11.4-6.3-12.3Z"/><path class="uuid-ae3086ef-442c-4f29-81e7-48ac39b596f5" d="M326.9,169.3c-.2-77.2-14.2-132-14.2-132,0,0-28.8,6.5-62.8,6.5h0c-.1,0-.2,0-.3,0-.1,0-.2,0-.3,0h0c-34,0-62.8-6.5-62.8-6.5,0,0-14.1,45.5-14.2,132,0,68.1-18.3,261.1-1.6,287.3,4.5,7,48.9,14.9,55.5,.7,10.6-22.8,17.8-231,23.4-262.3,5.4,33.1,16.6,249.3,23.4,262.3,7.2,13.8,51.1,6.3,55.5-.7,18.6-29.4-1.4-219.2-1.6-287.3Z"/><path class="uuid-ae3086ef-442c-4f29-81e7-48ac39b596f5" d="M239.3,36.5c0-1.4,1.1-2.5,2.5-2.5s2.5,1.1,2.5,2.5-1.1,2.5-2.5,2.5-2.5-1.1-2.5-2.5Z"/><path class="uuid-ae3086ef-442c-4f29-81e7-48ac39b596f5" d="M241.7,83.5c-.7,0-1.2-.5-1.2-1.2V36.5c0-.7,.5-1.2,1.2-1.2s1.2,.5,1.2,1.2v45.8c0,.7-.5,1.2-1.2,1.2Z"/><path class="uuid-ae3086ef-442c-4f29-81e7-48ac39b596f5" d="M252.4,36.5c0-1.4,1.1-2.5,2.5-2.5s2.5,1.1,2.5,2.5-1.1,2.5-2.5,2.5-2.5-1.1-2.5-2.5Z"/><path class="uuid-ae3086ef-442c-4f29-81e7-48ac39b596f5" d="M254.8,65.5c-.7,0-1.2-.5-1.2-1.2v-27.8c0-.7,.5-1.2,1.2-1.2s1.2,.5,1.2,1.2v27.8c0,.7-.5,1.2-1.2,1.2Z"/><path class="uuid-ae3086ef-442c-4f29-81e7-48ac39b596f5" d="M241.7,93.1c-1,0-1.8-.8-1.8-1.8v-13.9c0-1,.8-1.8,1.8-1.8s1.8,.8,1.8,1.8v13.9c0,1-.8,1.8-1.8,1.8Z"/><path class="uuid-ae3086ef-442c-4f29-81e7-48ac39b596f5" d="M254.8,77.6c-1,0-1.8-.8-1.8-1.8v-13.9c0-1,.8-1.8,1.8-1.8s1.8,.8,1.8,1.8v13.9c0,1-.8,1.8-1.8,1.8Z"/></g></svg>