<?xml version="1.0" encoding="UTF-8"?><svg id="uuid-6c260cad-891e-4245-8fb0-3bf40608e7b6" xmlns="http://www.w3.org/2000/svg" viewBox="0 0 500 500"><defs><style>.uuid-c400cab1-7ad8-46bb-8f42-55b321fa8da0{stroke:#fff;stroke-miterlimit:10;stroke-width:6px;}</style></defs><g id="uuid-4b63b4a8-f01f-483e-89f7-0a842265031f"><path class="uuid-c400cab1-7ad8-46bb-8f42-55b321fa8da0" d="M124,424.4c-.5,1.1-1.1,2.1-1.7,3.1-3.1,4.6-38.2,10.5-49.5,7.3,.9,5,1.9,9.9,2.6,13.4,1.9,9.7,51.4,0,50.4-9.7-.4-4.4-1.1-9.3-1.8-14.1Z"/><path class="uuid-c400cab1-7ad8-46bb-8f42-55b321fa8da0" d="M346.1,434.6c-23.3,18.3-89.3,16.1-96.1,15.8-6.8,.3-72.8,2.5-96.1-15.8-2.6-2.1-4.8-4.4-6.7-7,.5,9.5,1.7,22.7,5,28.1,5.3,8.8,49.2,19.3,98.4,19.3s84.4-8.8,93.2-17.6c5.5-5.5,7.6-19.3,8.3-28.8-1.7,2.2-3.7,4.2-6,6Z"/><path class="uuid-c400cab1-7ad8-46bb-8f42-55b321fa8da0" d="M377.7,427.5c-.7-1-1.2-2-1.7-3.1-.7,4.9-1.3,9.7-1.8,14.1-.9,9.7,48.5,19.4,50.4,9.7,.7-3.5,1.6-8.5,2.6-13.4-11.3,3.2-46.4-2.7-49.5-7.3Z"/><g><path class="uuid-c400cab1-7ad8-46bb-8f42-55b321fa8da0" d="M249.1,25s0,0,0,0h0Z"/><path class="uuid-c400cab1-7ad8-46bb-8f42-55b321fa8da0" d="M249,25h0Z"/><path class="uuid-c400cab1-7ad8-46bb-8f42-55b321fa8da0" d="M248.9,25s0,0,0,0h0Z"/><path class="uuid-c400cab1-7ad8-46bb-8f42-55b321fa8da0" d="M249,25h0Z"/><path class="uuid-c400cab1-7ad8-46bb-8f42-55b321fa8da0" d="M342.3,47.9c0-12.3-15.8-15.8-15.8-15.8-5.2,15.6-53.1,47.5-75.7,47.5s-70.6-31.9-75.7-47.5c0,0-15.8,3.5-15.8,15.8s-21.1,14.1-14.1,31.6c6.6,16.6,98.3,37.3,108.2,37.9,9.9-.6,96.4-21.3,103.1-37.9,7-17.6-14.1-19.3-14.1-31.6Z"/></g><path class="uuid-c400cab1-7ad8-46bb-8f42-55b321fa8da0" d="M250.7,79.5c22.7,0,70.6-31.9,75.7-47.5,0,0-35.5-7.1-77.5-7.1h0c-42,0-74,7.1-74,7.1,5.2,15.6,51,47.5,75.7,47.5Z"/><path class="uuid-c400cab1-7ad8-46bb-8f42-55b321fa8da0" d="M439.3,274.6c-7-61.5-31.6-149.4-63.3-177.5-6.7-5.9-14.2-10.6-21.9-14.3-15.3,15.9-91.6,34-100.8,34.6-.8,0-2.1-.2-3.8-.5-18.8-3.1-89.1-19.9-102.5-34.6-8.1,3.8-16,8.6-23,14.8-31.6,28.1-56.2,116-63.3,177.5-7,61.5-.2,140.3,8.8,158.2,3.5,7,49.2,0,52.7-5.3,11.1-16.7,1.2-48.8,3.5-105.5,1.8-42.2,15.8-84.4,15.8-84.4,0,0,5.3,49.2,1.8,91.4-3.5,42.2-14.1,86.1,10.5,105.5,23.3,18.3,89.3,16.1,96.1,15.8,6.8,.3,72.8,2.5,96.1-15.8,24.6-19.3,14.1-63.3,10.5-105.5-3.5-42.2,1.8-91.4,1.8-91.4,0,0,14.1,42.2,15.8,84.4,2.4,56.6-7.6,88.8,3.5,105.5,3.5,5.3,49.2,12.3,52.7,5.3,9-17.9,15.8-96.7,8.8-158.2Z"/><path class="uuid-c400cab1-7ad8-46bb-8f42-55b321fa8da0" d="M348.9,379.3c-55.2-12.8-47.3-81.8-47.3-81.8h-97.9s7.9,69-47.3,81.8c0,0-5.9,25.7,15.8,38.5,10.4,6.1,43.6,8.6,78.2,8.8h0c.8,0,1.6,0,2.3,0,.8,0,1.6,0,2.3,0h0c34.5-.2,67.8-2.7,78.2-8.8,21.7-12.8,15.8-38.5,15.8-38.5Z"/><path class="uuid-c400cab1-7ad8-46bb-8f42-55b321fa8da0" d="M251.9,421.4h-1.6c-39.1-.3-67.4-3.3-75.5-8.1-13.2-7.8-14.4-21.2-13.9-28.5v-1.2l1.2-.4c46.7-14.2,47.6-68,47.3-78.7v-1.8h86.4v1.8c-.3,10.6,.6,64.4,47.2,78.7l1.2,.4v1.2c.6,7.3-.6,20.7-13.8,28.5-8.1,4.8-36.4,7.8-75.5,8.1h-3Zm-87.5-35.2c-.2,6.7,1.3,17.6,12.2,24.1,5.6,3.3,28.3,7.3,73.7,7.6h4.6c45.4-.3,68.1-4.3,73.7-7.6,10.9-6.4,12.4-17.4,12.2-24.1-36.4-11.8-49-48.6-48.6-79.9h-79.2c.4,31.4-12.2,68.2-48.6,79.9Z"/><path class="uuid-c400cab1-7ad8-46bb-8f42-55b321fa8da0" d="M143.3,238l-3.5-.5c.1-.8,12-82.7-5.2-125.6l3.3-1.3c17.6,43.9,5.9,124.1,5.4,127.5Z"/><path class="uuid-c400cab1-7ad8-46bb-8f42-55b321fa8da0" d="M356.7,238c-.5-3.4-12.2-83.6,5.4-127.5l3.3,1.3c-17.2,43-5.3,124.8-5.2,125.6l-3.5,.5Z"/><path class="uuid-c400cab1-7ad8-46bb-8f42-55b321fa8da0" d="M233,99.7c-3.4,0-6.2-2.8-6.2-6.2s2.8-6.2,6.2-6.2,6.2,2.8,6.2,6.2-2.8,6.2-6.2,6.2Zm0-10.5c-2.4,0-4.4,2-4.4,4.4s2,4.4,4.4,4.4,4.4-2,4.4-4.4-2-4.4-4.4-4.4Z"/><path class="uuid-c400cab1-7ad8-46bb-8f42-55b321fa8da0" d="M268.1,99.7c-3.4,0-6.2-2.8-6.2-6.2s2.8-6.2,6.2-6.2,6.2,2.8,6.2,6.2-2.8,6.2-6.2,6.2Zm0-10.5c-2.4,0-4.4,2-4.4,4.4s2,4.4,4.4,4.4,4.4-2,4.4-4.4-2-4.4-4.4-4.4Z"/><path class="uuid-c400cab1-7ad8-46bb-8f42-55b321fa8da0" d="M233,210c-1.2,0-2.2-1-2.2-2.2V93.6c0-1.2,1-2.2,2.2-2.2s2.2,1,2.2,2.2v114.3c0,1.2-1,2.2-2.2,2.2Z"/><path class="uuid-c400cab1-7ad8-46bb-8f42-55b321fa8da0" d="M268.1,188.7c-1.1,0-2-.9-2-2V93.6c0-1.1,.9-2,2-2s2,.9,2,2v93.2c0,1.1-.9,2-2,2Z"/><path class="uuid-c400cab1-7ad8-46bb-8f42-55b321fa8da0" d="M233,221.9c-1,0-1.8-.8-1.8-1.8v-22.9c0-1,.8-1.8,1.8-1.8s1.8,.8,1.8,1.8v22.9c0,1-.8,1.8-1.8,1.8Z"/><path class="uuid-c400cab1-7ad8-46bb-8f42-55b321fa8da0" d="M268.1,197.3c-1,0-1.8-.8-1.8-1.8v-22.9c0-1,.8-1.8,1.8-1.8s1.8,.8,1.8,1.8v22.9c0,1-.8,1.8-1.8,1.8Z"/><path class="uuid-c400cab1-7ad8-46bb-8f42-55b321fa8da0" d="M285.9,85.1c-.7,0-1.3-.4-1.6-1.1-.4-.9,0-1.9,.9-2.3,16.4-7.1,30.6-19.3,40.1-34.4,.5-.8,1.6-1.1,2.4-.6,.8,.5,1.1,1.6,.6,2.4-9.8,15.7-24.6,28.4-41.7,35.8-.2,0-.5,.1-.7,.1Z"/><path class="uuid-c400cab1-7ad8-46bb-8f42-55b321fa8da0" d="M289.4,95.5c0,0-.1,0-.2,0-1,0-1.8-.8-1.8-1.8,0-1,.8-1.8,1.8-1.8,0,0,.1,0,.2,0,15.7,0,31.1-6.4,42.1-17.6,.7-.7,1.8-.7,2.5,0,.7,.7,.7,1.8,0,2.5-11.7,11.8-28,18.6-44.6,18.6Z"/><path class="uuid-c400cab1-7ad8-46bb-8f42-55b321fa8da0" d="M215,85.1c-.2,0-.5,0-.7-.1-17-7.3-31.8-20-41.7-35.8-.5-.8-.3-1.9,.6-2.4,.8-.5,1.9-.3,2.4,.6,9.5,15.1,23.7,27.4,40.1,34.4,.9,.4,1.3,1.4,.9,2.3-.3,.7-.9,1.1-1.6,1.1Z"/><path class="uuid-c400cab1-7ad8-46bb-8f42-55b321fa8da0" d="M211.5,95.5c-16.7,0-32.9-6.8-44.6-18.6-.7-.7-.7-1.8,0-2.5,.7-.7,1.8-.7,2.5,0,11.1,11.2,26.4,17.6,42.1,17.6,0,0,.1,0,.2,0,1,0,1.8,.8,1.8,1.8,0,1-.8,1.8-1.8,1.8,0,0-.1,0-.2,0Z"/></g></svg>